<?xml version="1.0" standalone="no"?>
<!DOCTYPE svg PUBLIC "-//W3C//DTD SVG 20010904//EN"
 "http://www.w3.org/TR/2001/REC-SVG-20010904/DTD/svg10.dtd">
<svg version="1.0" xmlns="http://www.w3.org/2000/svg"
 width="70.000000pt" height="70.000000pt" viewBox="0 0 70.000000 70.000000"
 preserveAspectRatio="xMidYMid meet">
<metadata>
Created by potrace 1.11, written by Peter Selinger 2001-2013
</metadata>
<g transform="translate(0.000000,70.000000) scale(0.100000,-0.100000)"
fill="#000000" stroke="none">
<path d="M0 350 l0 -350 350 0 350 0 0 350 0 350 -350 0 -350 0 0 -350z m260
125 l0 -95 35 0 c19 0 35 -4 35 -10 0 -6 -27 -10 -60 -10 l-60 0 0 105 0 105
25 0 c25 0 25 0 25 -95z m224 73 c14 -23 2 -32 -23 -16 -15 9 -24 9 -31 2 -8
-8 -1 -23 25 -53 36 -44 45 -87 23 -109 -13 -13 -56 -16 -82 -6 -17 7 -22 44
-6 44 6 0 10 -4 10 -10 0 -5 9 -10 20 -10 30 0 25 29 -11 66 -34 35 -41 73
-19 99 17 21 79 16 94 -7z m-226 -300 c1 -49 6 -88 10 -88 23 0 32 30 32 102
0 71 2 78 20 78 18 0 20 -7 20 -77 0 -96 -19 -123 -87 -123 l-43 0 0 101 c0
98 0 100 23 97 21 -3 22 -8 25 -90z m232 77 c0 -8 -9 -15 -20 -15 -18 0 -20
-7 -20 -85 0 -84 0 -85 -25 -85 -25 0 -25 1 -25 85 0 78 -2 85 -20 85 -20 0
-26 11 -13 23 3 4 33 7 65 7 45 0 58 -3 58 -15z"/>
</g>
</svg>
